PathFileType	4	(X/Y/Z)	pose_F01_0-74.trc
DataRate	CameraRate	NumFrames	NumMarkers	Units	OrigDataRate	OrigDataStartFrame	OrigNumFrames
30	30	6	21	m	30	37	74
Frame#	Time	CHip			RHip			RKnee			RAnkle			RBigToe			RSmallToe			RHeel			LHip			LKnee			LAnkle			LBigToe			LSmallToe			LHeel			Neck			Nose			RShoulder			RElbow			RWrist			LShoulder			LElbow			LWrist			
		X1	Y1	Z1	X2	Y2	Z2	X3	Y3	Z3	X4	Y4	Z4	X5	Y5	Z5	X6	Y6	Z6	X7	Y7	Z7	X8	Y8	Z8	X9	Y9	Z9	X10	Y10	Z10	X11	Y11	Z11	X12	Y12	Z12	X13	Y13	Z13	X14	Y14	Z14	X15	Y15	Z15	X16	Y16	Z16	X17	Y17	Z17	X18	Y18	Z18	X19	Y19	Z19	X20	Y20	Z20	X21	Y21	Z21	
37	1.2333333333333334	-0.26288532041011403	1.8778137342024717	-0.45555107704099634	-0.27640862122289817	1.8743518261689829	-0.390225089904416	-0.2776993992136999	1.727832932788833	-0.3804000601646564													-0.25268153359906775	1.882947764911844	-0.5284977906630126	-0.23458824052277305	1.739955096065614	-0.5721496848294433	-0.20879660704137953	1.5921747794217467	-0.6151053324912152	-0.20144868419206224	1.555389806481969	-0.6904679363253101	-0.19319472716744623	1.5639186935639398	-0.7038407908664503	-0.20941474521068346	1.5781948707359899	-0.5953114491399986	-0.26171454011962375	2.048429105274608	-0.4429321219955038	-0.28287682133994474	2.105464347355005	-0.39050832945534536	-0.2739540508784878	2.0424081088620865	-0.353729035668008	-0.30309987935711613	2.0267516623479387	-0.23884716831740524	-0.2909947691877435	2.092237239822116	-0.3077887291466282	-0.24787283454021705	2.056833237702657	-0.5430412334488299	-0.23062041004539158	1.9752790953599353	-0.5931100253663897	-0.230460676143133	1.9063959773168206	-0.6522825820173594
38	1.2666666666666666	-0.2631531401521051	1.8809149440402393	-0.45596954772375875	-0.2767919140998783	1.8764075214997449	-0.39057559630984356	-0.27646119927944646	1.7327333689338864	-0.377946892031041													-0.25227935901911924	1.8861450905026491	-0.5259634900454007	-0.23366914180931497	1.739596592663221	-0.5689941237922157	-0.20671386830583452	1.5924098902512307	-0.6171789551975002	-0.20152500983546093	1.555604119094673	-0.690483024627635	-0.1932126621403076	1.5640733069993176	-0.7038647933477363	-0.20657436718925445	1.579578762500186	-0.5941704951398179	-0.2605484419957028	2.0493981257539917	-0.43979949029266285	-0.2809090354151987	2.1069429263333737	-0.3924345719486712	-0.2728521741306215	2.04225971721773	-0.35060378176675383	-0.3026750744763556	2.0283804876438576	-0.24474098683490222	-0.28649498553920927	2.0906598287955394	-0.3076833350532612	-0.24585983045808993	2.0565750684732564	-0.536865630856056	-0.23052121455825988	1.9766603121384427	-0.5929896026428563	-0.23032660376893357	1.9091112618189734	-0.6526253921262114
39	1.3	-0.26494855557674574	1.8794809679168232	-0.45361855899782016	-0.2767537106636982	1.8748614796525405	-0.3902746751060522	-0.2760481528419105	1.7297480982282125	-0.3777565941435884													-0.2521770296353274	1.8849198785002605	-0.5257312792777007	-0.2364699770958061	1.740791451590108	-0.5702579455021102	-0.2089819727823732	1.5936317612411068	-0.6147832136253749	-0.19948922957326226	1.5540252084350468	-0.6920918938702366	-0.19308135398862883	1.5636784814359435	-0.7039097408694328	-0.20548304454606242	1.5786523614592134	-0.5908929465747242	-0.2606661570968495	2.0483434610967235	-0.43989424779941666	-0.279053840092473	2.1093022428244628	-0.39511686648059474	-0.27569693379588317	2.0425278636828375	-0.35167195906596943	-0.3036946934442447	2.034090422400961	-0.24905259094613547	-0.2852337285072497	2.09515016698948	-0.31342783114969125	-0.24491021183732847	2.0564737794442127	-0.5338184623562692	-0.23061267027353477	1.9752833548115973	-0.5929244071410816	-0.23051846285553418	1.9087511218796738	-0.6527664657195205
40	1.3333333333333333	-0.2649495171029015	1.8796083325343638	-0.4535965101474151	-0.2785518805740889	1.8749122824664994	-0.3882268565034373	-0.2764283401204732	1.7320867776901125	-0.37786064170000283													-0.25214385687924723	1.884881676491191	-0.5257406512967088	-0.23663834905183934	1.739610472417793	-0.5699829675585266	-0.2068617562798619	1.5901414387895483	-0.6166936911656472	-0.19924367438962917	1.5552892120253423	-0.6925257682601554	-0.19311858727544404	1.5636837339433274	-0.7038099362040178	-0.20755670674530943	1.5764341797765016	-0.5971352744371086	-0.2605440272094011	2.0493886566374417	-0.43968592846076227	-0.2799096308333453	2.111445538882436	-0.3980659540078377	-0.27467341624531677	2.0421138897333853	-0.34843231054484136	-0.31122754159246563	2.035665478426996	-0.2630770999686662	-0.2861882387698433	2.092024821143016	-0.31430322136690186	-0.2420239486893368	2.056282256255503	-0.5328344537038622	-0.23064749997427228	1.975388832609819	-0.5928004124842149	-0.2297835206208634	1.9097219961156802	-0.6497994457856435
41	1.3666666666666667	-0.2630557891490083	1.879595385148776	-0.4557480701345496	-0.27831820532432194	1.8744155911946037	-0.3881662374571868	-0.27689792024226917	1.7302652377876742	-0.3792987710239988													-0.25200071106386657	1.8834177665101948	-0.5255999988894967	-0.23444140207331363	1.7411965235831244	-0.5725074173289377	-0.20668083039870502	1.5920720335317846	-0.61725346095014	-0.2014948822685545	1.5554785368392328	-0.69043401484668	-0.1931859983654199	1.563939251150505	-0.7038444566799272	-0.20745847342901455	1.5789834683150756	-0.5974499010353863	-0.2606236253436588	2.048306669192357	-0.439856856520493	-0.2790995380596907	2.113953432337996	-0.4036453823317178	-0.2757317563294306	2.042410893589782	-0.3515107294754437	-0.3088257517555837	2.043561281577197	-0.25904613123508147	-0.2902548591609081	2.1013132788975666	-0.31605861236008653	-0.24203965747313458	2.0552148326520756	-0.5330203442423513	-0.22984741806351838	1.9742518364547674	-0.5898954594452969	-0.22751932283421947	1.907403063614805	-0.6516546308917867
42	1.4	-0.2643370020393652	1.879898236990906	-0.45914420104487436	-0.2787724637100383	1.8732642016312562	-0.3882121387516869	-0.27736750036406516	1.7284436978852358	-0.3807369003479947													-0.2512025528275027	1.8837092655843344	-0.5308858686270217	-0.23484179032746438	1.738634825316987	-0.571873475485934	-0.20720760440741368	1.5923195354782809	-0.6163562721257532	-0.19957987545960454	1.5540453826551315	-0.6920441826700908	-0.19333507796521887	1.5621565445645336	-0.7032830443229295	-0.2059200353857133	1.5780317215149	-0.5903263507498672	-0.26053025587646916	2.0493752957069833	-0.4396744220935329	-0.2802665109854805	2.1180186674597956	-0.4155268312565836	-0.2747152737510877	2.0407883021880417	-0.34792141671268734	-0.3151886304520511	2.0518351581290815	-0.2716524133104648	-0.2952457658792053	2.100184829271249	-0.3160913690096919	-0.24202408337562262	2.0551731037353695	-0.5329630256316175	-0.22987947613962362	1.9742972263275842	-0.5897808364407096	-0.2293038702616539	1.9069301301708195	-0.6493325431082473
